<svg viewBox="0 0 100 100" fill="none" xmlns="http://www.w3.org/2000/svg">
	<style>
		path {
			fill: white;
		}

		@media (prefers-color-scheme: light) {
			path {
				fill: black;
			}
		}
	</style>
	<path fill-rule="evenodd" clip-rule="evenodd"
		d="M5 22C2.23858 22 0 24.2386 0 27V33.3214C-2.27758 33.7691 -4.16727 34.6846 -5.66908 36.0677C-7.88969 38.1128 -9 40.9497 -9 44.5781C-9 45.6832 -8.79455 46.8212 -8.38365 47.9922C-7.97275 49.1632 -7.50502 50.161 -6.98047 50.9857C-6.45592 51.8103 -5.86142 52.6144 -5.19699 53.3978C-4.53255 54.1812 -4.04734 54.7214 -3.74135 55.0182C-3.43536 55.3151 -3.19494 55.5295 -3.02009 55.6615L0 58.4098V77C0 79.7614 2.23858 82 5 82H95C97.7614 82 100 79.7614 100 77V27C100 24.2386 97.7614 22 95 22H5ZM0 58.4098L13.346 70.5547C13.6607 70.8516 14.0454 71 14.5 71C14.9546 71 15.3393 70.8516 15.654 70.5547L31.9939 55.7109C35.998 51.934 38 48.2231 38 44.5781C38 40.9497 36.8897 38.1128 34.6691 36.0677C32.4485 34.0226 29.3798 33 25.4632 33C24.3791 33 23.2732 33.1773 22.1454 33.5319C21.0176 33.8865 19.9685 34.3648 18.998 34.9668C18.0276 35.5688 17.1927 36.1337 16.4933 36.6615C15.7939 37.1892 15.1295 37.75 14.5 38.3438C13.8705 37.75 13.2061 37.1892 12.5067 36.6615C11.8073 36.1337 10.9724 35.5688 10.002 34.9668C9.03153 34.3648 7.98242 33.8865 6.85463 33.5319C5.72684 33.1773 4.62091 33 3.53683 33C2.26903 33 1.09009 33.1071 0 33.3214V58.4098ZM48 40.5C48 39.6716 48.6716 39 49.5 39C50.3284 39 51 39.6716 51 40.5V63.5C51 64.3284 50.3284 65 49.5 65C48.6716 65 48 64.3284 48 63.5V40.5ZM59.5 39C58.6716 39 58 39.6716 58 40.5V57.5C58 58.3284 58.6716 59 59.5 59C60.3284 59 61 58.3284 61 57.5V40.5C61 39.6716 60.3284 39 59.5 39ZM63 40.5C63 39.6716 63.6716 39 64.5 39C65.3284 39 66 39.6716 66 40.5V57.5C66 58.3284 65.3284 59 64.5 59C63.6716 59 63 58.3284 63 57.5V40.5ZM69.5 39C68.6716 39 68 39.6716 68 40.5V57.5C68 58.3284 68.6716 59 69.5 59C70.3284 59 71 58.3284 71 57.5V40.5C71 39.6716 70.3284 39 69.5 39ZM73 40.5C73 39.6716 73.6716 39 74.5 39C75.3284 39 76 39.6716 76 40.5V57.5C76 58.3284 75.3284 59 74.5 59C73.6716 59 73 58.3284 73 57.5V40.5ZM79.5 39C78.6716 39 78 39.6716 78 40.5V57.5C78 58.3284 78.6716 59 79.5 59C80.3284 59 81 58.3284 81 57.5V40.5C81 39.6716 80.3284 39 79.5 39ZM53 40.5C53 39.6716 53.6716 39 54.5 39C55.3284 39 56 39.6716 56 40.5V57.5C56 58.3284 55.3284 59 54.5 59C53.6716 59 53 58.3284 53 57.5V40.5ZM59.5 61C58.6716 61 58 61.6716 58 62.5C58 63.3284 58.6716 64 59.5 64C60.3284 64 61 63.3284 61 62.5C61 61.6716 60.3284 61 59.5 61ZM53 62.5C53 61.6716 53.6716 61 54.5 61C55.3284 61 56 61.6716 56 62.5C56 63.3284 55.3284 64 54.5 64C53.6716 64 53 63.3284 53 62.5ZM64.5 61C63.6716 61 63 61.6716 63 62.5C63 63.3284 63.6716 64 64.5 64C65.3284 64 66 63.3284 66 62.5C66 61.6716 65.3284 61 64.5 61ZM68 62.5C68 61.6716 68.6716 61 69.5 61C70.3284 61 71 61.6716 71 62.5C71 63.3284 70.3284 64 69.5 64C68.6716 64 68 63.3284 68 62.5ZM74.5 61C73.6716 61 73 61.6716 73 62.5C73 63.3284 73.6716 64 74.5 64C75.3284 64 76 63.3284 76 62.5C76 61.6716 75.3284 61 74.5 61ZM78 62.5C78 61.6716 78.6716 61 79.5 61C80.3284 61 81 61.6716 81 62.5C81 63.3284 80.3284 64 79.5 64C78.6716 64 78 63.3284 78 62.5ZM84.5 39C83.6716 39 83 39.6716 83 40.5V63.5C83 64.3284 83.6716 65 84.5 65C85.3284 65 86 64.3284 86 63.5V40.5C86 39.6716 85.3284 39 84.5 39Z" />
</svg>