<svg width="100" height="100" fill="none" xmlns="http://www.w3.org/2000/svg">
  <style>
    path {
      fill: white;
    }

    @media (prefers-color-scheme: light) {
      path {
        fill: black;
      }
    }
  </style>
  <path fill-rule="evenodd" clip-rule="evenodd"
    d="M5 22a5 5 0 0 0-5 5v6.321c-2.278.448-4.167 1.364-5.67 2.747C-7.89 38.113-9 40.95-9 44.578c0 1.105.205 2.243.616 3.414.411 1.171.879 2.169 1.404 2.994.524.824 1.119 1.628 1.783 2.412.664.783 1.15 1.323 1.456 1.62.306.297.546.511.72.643L0 58.41V77a5 5 0 0 0 5 5h90a5 5 0 0 0 5-5V27a5 5 0 0 0-5-5H5ZM0 58.41l13.346 12.145c.315.297.7.445 1.154.445.455 0 .84-.148 1.154-.445l16.34-14.844C35.998 51.934 38 48.223 38 44.578c0-3.628-1.11-6.465-3.33-8.51C32.448 34.023 29.38 33 25.462 33c-1.084 0-2.19.177-3.318.532a13.79 13.79 0 0 0-3.147 1.435 33.589 33.589 0 0 0-2.505 1.694 23.74 23.74 0 0 0-1.993 1.683 23.74 23.74 0 0 0-1.993-1.683 33.589 33.589 0 0 0-2.505-1.694c-.97-.602-2.02-1.08-3.147-1.435A11.025 11.025 0 0 0 3.537 33c-1.268 0-2.447.107-3.537.321V58.41ZM48 40.5a1.5 1.5 0 0 1 3 0v23a1.5 1.5 0 0 1-3 0v-23ZM59.5 39a1.5 1.5 0 0 0-1.5 1.5v17a1.5 1.5 0 0 0 3 0v-17a1.5 1.5 0 0 0-1.5-1.5Zm3.5 1.5a1.5 1.5 0 0 1 3 0v17a1.5 1.5 0 0 1-3 0v-17Zm6.5-1.5a1.5 1.5 0 0 0-1.5 1.5v17a1.5 1.5 0 0 0 3 0v-17a1.5 1.5 0 0 0-1.5-1.5Zm3.5 1.5a1.5 1.5 0 0 1 3 0v17a1.5 1.5 0 0 1-3 0v-17Zm6.5-1.5a1.5 1.5 0 0 0-1.5 1.5v17a1.5 1.5 0 0 0 3 0v-17a1.5 1.5 0 0 0-1.5-1.5ZM53 40.5a1.5 1.5 0 0 1 3 0v17a1.5 1.5 0 0 1-3 0v-17ZM59.5 61a1.5 1.5 0 1 0 0 3 1.5 1.5 0 0 0 0-3ZM53 62.5a1.5 1.5 0 1 1 3 0 1.5 1.5 0 0 1-3 0ZM64.5 61a1.5 1.5 0 1 0 0 3 1.5 1.5 0 0 0 0-3Zm3.5 1.5a1.5 1.5 0 1 1 3 0 1.5 1.5 0 0 1-3 0Zm6.5-1.5a1.5 1.5 0 1 0 0 3 1.5 1.5 0 0 0 0-3Zm3.5 1.5a1.5 1.5 0 1 1 3 0 1.5 1.5 0 0 1-3 0ZM84.5 39a1.5 1.5 0 0 0-1.5 1.5v23a1.5 1.5 0 0 0 3 0v-23a1.5 1.5 0 0 0-1.5-1.5Z" />
</svg>