<svg viewBox="0 0 100 100" width="192" height="192" fill="none" xmlns="http://www.w3.org/2000/svg">
  <style>
    path {
      fill: #E7F8F3
    }

    g path {
      fill: #16068D;
    }
  </style>
  <path d="M0 0h100v100H0z" />
  <mask id="mask0_306_10" style="mask-type:alpha" maskUnits="userSpaceOnUse" x="8" y="24" width="84" height="52">
    <rect x="8" y="24.8" width="84" height="50.4" rx="5" fill="#fff" />
  </mask>
  <g mask="url(#mask0_306_10)">
    <path fill-rule="evenodd" clip-rule="evenodd"
      d="M13 24.8a5 5 0 0 0-5 5v4.51c-1.913.376-3.5 1.145-4.762 2.307C1.373 38.335.44 40.717.44 43.766c0 .928.173 1.884.518 2.867.345.984.738 1.822 1.178 2.515.441.693.94 1.368 1.498 2.026.559.658.966 1.112 1.223 1.361.257.25.46.43.606.54L8 55.386V70.2a5 5 0 0 0 5 5h74a5 5 0 0 0 5-5V29.8a5 5 0 0 0-5-5H13ZM8 55.384l11.21 10.202c.265.25.588.374.97.374s.705-.125.97-.374l13.725-12.469c3.363-3.172 5.045-6.29 5.045-9.351 0-3.048-.933-5.431-2.798-7.15-1.865-1.717-4.443-2.576-7.733-2.576-.91 0-1.84.149-2.787.447-.947.298-1.829.7-2.644 1.205-.815.506-1.516.98-2.104 1.424-.587.443-1.145.914-1.674 1.413a19.931 19.931 0 0 0-1.674-1.413 28.186 28.186 0 0 0-2.104-1.424 11.582 11.582 0 0 0-2.644-1.205 9.262 9.262 0 0 0-2.787-.447c-1.065 0-2.055.09-2.971.27v21.074ZM48.32 40.34a1.26 1.26 0 0 1 2.52 0v19.32a1.26 1.26 0 1 1-2.52 0V40.34Zm9.66-1.26a1.26 1.26 0 0 0-1.26 1.26v14.28a1.26 1.26 0 0 0 2.52 0V40.34a1.26 1.26 0 0 0-1.26-1.26Zm2.94 1.26a1.26 1.26 0 0 1 2.52 0v14.28a1.26 1.26 0 1 1-2.52 0V40.34Zm5.46-1.26a1.26 1.26 0 0 0-1.26 1.26v14.28a1.26 1.26 0 0 0 2.52 0V40.34a1.26 1.26 0 0 0-1.26-1.26Zm2.94 1.26a1.26 1.26 0 0 1 2.52 0v14.28a1.26 1.26 0 1 1-2.52 0V40.34Zm5.46-1.26a1.26 1.26 0 0 0-1.26 1.26v14.28a1.26 1.26 0 0 0 2.52 0V40.34a1.26 1.26 0 0 0-1.26-1.26Zm-22.26 1.26a1.26 1.26 0 0 1 2.52 0v14.28a1.26 1.26 0 1 1-2.52 0V40.34Zm5.46 17.22a1.26 1.26 0 1 0 0 2.52 1.26 1.26 0 0 0 0-2.52Zm-5.46 1.26a1.26 1.26 0 1 1 2.52 0 1.26 1.26 0 0 1-2.52 0Zm9.66-1.26a1.26 1.26 0 1 0 0 2.52 1.26 1.26 0 0 0 0-2.52Zm2.94 1.26a1.26 1.26 0 1 1 2.52 0 1.26 1.26 0 0 1-2.52 0Zm5.46-1.26a1.26 1.26 0 1 0 0 2.52 1.26 1.26 0 0 0 0-2.52Zm2.94 1.26a1.26 1.26 0 1 1 2.52 0 1.26 1.26 0 0 1-2.52 0Zm5.46-19.74a1.26 1.26 0 0 0-1.26 1.26v19.32a1.26 1.26 0 0 0 2.52 0V40.34a1.26 1.26 0 0 0-1.26-1.26Z" />
  </g>
</svg>