<svg viewBox="0 0 200 200" width="192" height="192" fill="none" xmlns="http://www.w3.org/2000/svg">
  <style>
    path {
      fill: #E7F8F3
    }

    g path {
      fill: #16068D;
    }
  </style>
  <path d="M0 0h200v200H0z" />
  <mask id="a" style="mask-type:alpha" maskUnits="userSpaceOnUse" x="30" y="58" width="140" height="84">
    <rect x="30" y="58" width="140" height="84" rx="5" fill="#000" />
  </mask>
  <g mask="url(#a)">
    <path fill-rule="evenodd" clip-rule="evenodd"
      d="M35 58a5 5 0 0 0-5 5v10.85c-3.189.627-5.834 1.908-7.937 3.845-3.109 2.863-4.663 6.835-4.663 11.914 0 1.547.288 3.14.863 4.78.575 1.64 1.23 3.037 1.964 4.191a30.714 30.714 0 0 0 2.497 3.377c.93 1.097 1.61 1.853 2.038 2.269.428.415.765.715 1.01.9L30 108.974V137a5 5 0 0 0 5 5h130a5 5 0 0 0 5-5V63a5 5 0 0 0-5-5H35Zm-5 50.974 18.684 17.003c.44.415.98.623 1.616.623.636 0 1.175-.208 1.616-.623l22.875-20.782c5.606-5.287 8.409-10.483 8.409-15.586 0-5.08-1.555-9.051-4.663-11.914-3.11-2.863-7.405-4.295-12.889-4.295-1.517 0-3.066.248-4.645.745a19.305 19.305 0 0 0-4.406 2.009 47.036 47.036 0 0 0-3.507 2.372 33.29 33.29 0 0 0-2.79 2.355 33.275 33.275 0 0 0-2.79-2.355 47.036 47.036 0 0 0-3.507-2.372 19.305 19.305 0 0 0-4.407-2.01c-1.578-.496-3.127-.744-4.644-.744-1.775 0-3.426.15-4.952.45v35.124ZM97.2 83.9a2.1 2.1 0 1 1 4.2 0v32.2a2.1 2.1 0 1 1-4.2 0V83.9Zm16.1-2.1a2.1 2.1 0 0 0-2.1 2.1v23.8a2.1 2.1 0 1 0 4.2 0V83.9a2.1 2.1 0 0 0-2.1-2.1Zm4.9 2.1a2.1 2.1 0 1 1 4.2 0v23.8a2.1 2.1 0 1 1-4.2 0V83.9Zm9.1-2.1a2.1 2.1 0 0 0-2.1 2.1v23.8a2.1 2.1 0 1 0 4.2 0V83.9a2.1 2.1 0 0 0-2.1-2.1Zm4.9 2.1a2.1 2.1 0 1 1 4.2 0v23.8a2.1 2.1 0 1 1-4.2 0V83.9Zm9.1-2.1a2.1 2.1 0 0 0-2.1 2.1v23.8a2.1 2.1 0 1 0 4.2 0V83.9a2.1 2.1 0 0 0-2.1-2.1Zm-37.1 2.1a2.1 2.1 0 1 1 4.2 0v23.8a2.1 2.1 0 1 1-4.2 0V83.9Zm9.1 28.7a2.1 2.1 0 1 0 0 4.2 2.1 2.1 0 0 0 0-4.2Zm-9.1 2.1a2.1 2.1 0 1 1 4.2 0 2.1 2.1 0 0 1-4.2 0Zm16.1-2.1a2.1 2.1 0 1 0 0 4.2 2.1 2.1 0 0 0 0-4.2Zm4.9 2.1a2.1 2.1 0 1 1 4.2 0 2.1 2.1 0 0 1-4.2 0Zm9.1-2.1a2.1 2.1 0 1 0 0 4.2 2.1 2.1 0 0 0 0-4.2Zm4.9 2.1a2.1 2.1 0 1 1 4.2 0 2.1 2.1 0 0 1-4.2 0Zm9.1-32.9a2.1 2.1 0 0 0-2.1 2.1v32.2a2.1 2.1 0 1 0 4.2 0V83.9a2.1 2.1 0 0 0-2.1-2.1Z" />
  </g>
</svg>