<svg viewBox="0 0 200 200" width="512" height="512" fill="none" xmlns="http://www.w3.org/2000/svg">
  <style>
    path {
      fill: white;
    }

    @media (prefers-color-scheme: light) {
      path {
        fill: black;
      }
    }
  </style>
  <mask id="a" style="mask-type:alpha" maskUnits="userSpaceOnUse" x="50" y="70" width="100" height="60">
    <rect x="50" y="70" width="100" height="60" rx="5" fill="red" />
  </mask>
  <g mask="url(#a)">
    <path fill-rule="evenodd" clip-rule="evenodd"
      d="M55 70a5 5 0 0 0-5 5v6.321c-2.278.448-4.167 1.364-5.67 2.747-2.22 2.045-3.33 4.882-3.33 8.51 0 1.105.206 2.243.616 3.414.411 1.171.879 2.169 1.404 2.994.524.824 1.119 1.628 1.783 2.412.664.783 1.15 1.323 1.456 1.62.306.297.546.512.72.643L50 106.41V125a5 5 0 0 0 5 5h90a5 5 0 0 0 5-5V75a5 5 0 0 0-5-5H55Zm-5 36.41 13.346 12.145c.315.297.7.445 1.154.445.455 0 .84-.148 1.154-.445l16.34-14.844C85.998 99.934 88 96.223 88 92.578c0-3.628-1.11-6.465-3.33-8.51C82.447 82.023 79.38 81 75.462 81c-1.084 0-2.19.177-3.318.532a13.79 13.79 0 0 0-3.147 1.435 33.589 33.589 0 0 0-2.505 1.695 23.74 23.74 0 0 0-1.993 1.682 23.74 23.74 0 0 0-1.993-1.682 33.589 33.589 0 0 0-2.505-1.695 13.79 13.79 0 0 0-3.147-1.435A11.025 11.025 0 0 0 53.537 81c-1.268 0-2.447.107-3.537.321v25.089ZM98 88.5a1.5 1.5 0 0 1 3 0v23a1.5 1.5 0 0 1-3 0v-23Zm11.5-1.5a1.5 1.5 0 0 0-1.5 1.5v17a1.5 1.5 0 0 0 3 0v-17a1.5 1.5 0 0 0-1.5-1.5Zm3.5 1.5a1.5 1.5 0 0 1 3 0v17a1.5 1.5 0 0 1-3 0v-17Zm6.5-1.5a1.5 1.5 0 0 0-1.5 1.5v17a1.5 1.5 0 0 0 3 0v-17a1.5 1.5 0 0 0-1.5-1.5Zm3.5 1.5a1.5 1.5 0 0 1 3 0v17a1.5 1.5 0 0 1-3 0v-17Zm6.5-1.5a1.5 1.5 0 0 0-1.5 1.5v17a1.5 1.5 0 0 0 3 0v-17a1.5 1.5 0 0 0-1.5-1.5ZM103 88.5a1.5 1.5 0 0 1 3 0v17a1.5 1.5 0 0 1-3 0v-17Zm6.5 20.5a1.5 1.5 0 1 0 .001 3.001A1.5 1.5 0 0 0 109.5 109Zm-6.5 1.5a1.5 1.5 0 1 1 3.001.001A1.5 1.5 0 0 1 103 110.5Zm11.5-1.5a1.5 1.5 0 1 0 .001 3.001A1.5 1.5 0 0 0 114.5 109Zm3.5 1.5a1.5 1.5 0 1 1 3.001.001A1.5 1.5 0 0 1 118 110.5Zm6.5-1.5a1.5 1.5 0 1 0 .001 3.001A1.5 1.5 0 0 0 124.5 109Zm3.5 1.5a1.5 1.5 0 1 1 3.001.001A1.5 1.5 0 0 1 128 110.5Zm6.5-23.5a1.5 1.5 0 0 0-1.5 1.5v23a1.5 1.5 0 0 0 3 0v-23a1.5 1.5 0 0 0-1.5-1.5Z" />
  </g>
</svg>